<?xml version="1.0" encoding="UTF-8" standalone="no"?>
<!-- Created with Inkscape (http://www.inkscape.org/) -->

<svg
   width="1024"
   height="1024"
   viewBox="0 0 270.93333 270.93333"
   version="1.1"
   id="svg1"
   inkscape:version="1.4 (e7c3feb100, 2024-10-09)"
   sodipodi:docname="community-app-icon.svg"
   xmlns:inkscape="http://www.inkscape.org/namespaces/inkscape"
   xmlns:sodipodi="http://sodipodi.sourceforge.net/DTD/sodipodi-0.dtd"
   xmlns="http://www.w3.org/2000/svg"
   xmlns:svg="http://www.w3.org/2000/svg">
  <sodipodi:namedview
     id="namedview1"
     pagecolor="#ffffff"
     bordercolor="#000000"
     borderopacity="0.25"
     inkscape:showpageshadow="2"
     inkscape:pageopacity="0.0"
     inkscape:pagecheckerboard="0"
     inkscape:deskcolor="#d1d1d1"
     inkscape:document-units="mm"
     inkscape:zoom="0.17386018"
     inkscape:cx="-278.9598"
     inkscape:cy="741.97554"
     inkscape:window-width="1356"
     inkscape:window-height="724"
     inkscape:window-x="0"
     inkscape:window-y="0"
     inkscape:window-maximized="1"
     inkscape:current-layer="layer1" />
  <defs
     id="defs1">
    <inkscape:path-effect
       effect="copy_rotate"
       starting_point="63.502309,26.613315"
       origin="50,50"
       id="path-effect2"
       is_visible="true"
       lpeversion="1.2"
       lpesatellites="#path8 | #path9 | #path10 | #path11 | #path12"
       method="normal"
       num_copies="6"
       starting_angle="60"
       rotation_angle="60"
       gap="0.84"
       copies_to_360="true"
       mirror_copies="false"
       split_items="true"
       link_styles="true" />
    <inkscape:path-effect
       effect="knot"
       id="path-effect1"
       is_visible="true"
       lpeversion="1"
       switcher_size="15.3"
       interruption_width="3.2"
       prop_to_stroke_width="true"
       add_stroke_width="inkscape_1.0_and_up"
       both="false"
       inverse_width="false"
       add_other_stroke_width="inkscape_1.0_and_up"
       crossing_points_vector="" />
  </defs>
  <g
     inkscape:label="Layer 1"
     inkscape:groupmode="layer"
     id="layer1">
    <rect
       style="fill:#000000;fill-opacity:1;stroke:#000130;stroke-width:1.5546;stroke-linecap:square;stroke-dasharray:none;stroke-opacity:0.732251;paint-order:markers fill stroke"
       id="rect20"
       width="269.37872"
       height="269.37872"
       x="0.77729899"
       y="0.77729899" />
    <g
       id="g15"
       transform="matrix(1.5870064,0,0,1.478214,-25.855984,-35.475925)"
       style="fill:#28a080;fill-opacity:1;stroke:none">
      <path
         id="path1"
         transform="translate(51.652174,65.641304)"
         inkscape:transform-center-x="-0.99711887"
         inkscape:transform-center-y="-2.4477393"
         d="M 116.23889,23.586086 C 116.36425,32.390962 94.314819,30.010743 86.752253,34.521747 79.189688,39.03275 70.807457,59.56519 63.11953,55.271318 55.431604,50.977446 68.517651,33.072188 68.392289,24.267312 68.266928,15.462437 54.676429,-2.063009 62.238994,-6.5740124 69.80156,-11.085016 78.764945,9.2004621 86.452872,13.494334 c 7.687927,4.293872 29.660658,1.286877 29.786018,10.091752 z"
         style="fill:#28a080;fill-opacity:1;stroke:none;stroke-width:0.896;stroke-linecap:square;stroke-dasharray:none;stroke-opacity:0.238999;paint-order:markers fill stroke" />
      <path
         transform="rotate(-60,132.67312,38.088557)"
         style="fill:#28a080;fill-opacity:1;stroke:none;stroke-width:0.896;stroke-linecap:square;stroke-dasharray:none;stroke-opacity:0.238999;paint-order:markers fill stroke"
         id="path8"
         d="M 116.23889,23.586086 C 116.36425,32.390962 94.314819,30.010743 86.752253,34.521747 79.189688,39.03275 70.807457,59.56519 63.11953,55.271318 55.431604,50.977446 68.517651,33.072188 68.392289,24.267312 68.266928,15.462437 54.676429,-2.063009 62.238994,-6.5740124 69.80156,-11.085016 78.764945,9.2004621 86.452872,13.494334 c 7.687927,4.293872 29.660658,1.286877 29.786018,10.091752 z" />
      <path
         transform="rotate(-120,94.775099,67.909954)"
         style="fill:#28a080;fill-opacity:1;stroke:none;stroke-width:0.896;stroke-linecap:square;stroke-dasharray:none;stroke-opacity:0.238999;paint-order:markers fill stroke"
         id="path9"
         d="M 116.23889,23.586086 C 116.36425,32.390962 94.314819,30.010743 86.752253,34.521747 79.189688,39.03275 70.807457,59.56519 63.11953,55.271318 55.431604,50.977446 68.517651,33.072188 68.392289,24.267312 68.266928,15.462437 54.676429,-2.063009 62.238994,-6.5740124 69.80156,-11.085016 78.764945,9.2004621 86.452872,13.494334 c 7.687927,4.293872 29.660658,1.286877 29.786018,10.091752 z" />
      <path
         transform="rotate(180,75.826087,82.820652)"
         style="fill:#28a080;fill-opacity:1;stroke:none;stroke-width:0.896;stroke-linecap:square;stroke-dasharray:none;stroke-opacity:0.238999;paint-order:markers fill stroke"
         id="path10"
         d="M 116.23889,23.586086 C 116.36425,32.390962 94.314819,30.010743 86.752253,34.521747 79.189688,39.03275 70.807457,59.56519 63.11953,55.271318 55.431604,50.977446 68.517651,33.072188 68.392289,24.267312 68.266928,15.462437 54.676429,-2.063009 62.238994,-6.5740124 69.80156,-11.085016 78.764945,9.2004621 86.452872,13.494334 c 7.687927,4.293872 29.660658,1.286877 29.786018,10.091752 z" />
      <path
         transform="rotate(120,56.877075,97.73135)"
         style="fill:#28a080;fill-opacity:1;stroke:none;stroke-width:0.896;stroke-linecap:square;stroke-dasharray:none;stroke-opacity:0.238999;paint-order:markers fill stroke"
         id="path11"
         d="M 116.23889,23.586086 C 116.36425,32.390962 94.314819,30.010743 86.752253,34.521747 79.189688,39.03275 70.807457,59.56519 63.11953,55.271318 55.431604,50.977446 68.517651,33.072188 68.392289,24.267312 68.266928,15.462437 54.676429,-2.063009 62.238994,-6.5740124 69.80156,-11.085016 78.764945,9.2004621 86.452872,13.494334 c 7.687927,4.293872 29.660658,1.286877 29.786018,10.091752 z" />
      <path
         transform="rotate(60,18.97905,127.55275)"
         style="fill:#28a080;fill-opacity:1;stroke:none;stroke-width:0.896;stroke-linecap:square;stroke-dasharray:none;stroke-opacity:0.238999;paint-order:markers fill stroke"
         id="path12"
         d="M 116.23889,23.586086 C 116.36425,32.390962 94.314819,30.010743 86.752253,34.521747 79.189688,39.03275 70.807457,59.56519 63.11953,55.271318 55.431604,50.977446 68.517651,33.072188 68.392289,24.267312 68.266928,15.462437 54.676429,-2.063009 62.238994,-6.5740124 69.80156,-11.085016 78.764945,9.2004621 86.452872,13.494334 c 7.687927,4.293872 29.660658,1.286877 29.786018,10.091752 z" />
    </g>
  </g>
</svg>
